<svg width="34" height="34" viewBox="0 0 34 34" fill="none" xmlns="http://www.w3.org/2000/svg">
<circle cx="16.8463" cy="16.8463" r="16.8463" fill="#E9D3C5"/>
<path d="M23.8253 18.7166L22.8837 17.15C22.6753 16.8083 22.492 16.15 22.492 15.75V14.1916C22.492 11.1666 20.0337 8.70831 17.017 8.70831C13.992 8.71665 11.5337 11.1666 11.5337 14.1916V15.7416C11.5337 16.1416 11.3503 16.8 11.1503 17.1416L10.2087 18.7083C9.85033 19.3166 9.767 20.0083 9.992 20.6083C10.217 21.2166 10.7253 21.7 11.392 21.9166C12.292 22.2166 13.2003 22.4333 14.1253 22.5916C14.217 22.6083 14.3087 22.6166 14.4003 22.6333C14.517 22.65 14.642 22.6666 14.767 22.6833C14.9837 22.7166 15.2003 22.7416 15.4253 22.7583C15.9503 22.8083 16.4837 22.8333 17.017 22.8333C17.542 22.8333 18.067 22.8083 18.5837 22.7583C18.7753 22.7416 18.967 22.725 19.1503 22.7C19.3003 22.6833 19.4503 22.6666 19.6003 22.6416C19.692 22.6333 19.7837 22.6166 19.8753 22.6C20.8087 22.45 21.7337 22.2166 22.6337 21.9166C23.2753 21.7 23.767 21.2166 24.0003 20.6C24.2337 19.975 24.167 19.2916 23.8253 18.7166ZM17.6253 15.3333C17.6253 15.6833 17.342 15.9666 16.992 15.9666C16.642 15.9666 16.3587 15.6833 16.3587 15.3333V12.75C16.3587 12.4 16.642 12.1166 16.992 12.1166C17.342 12.1166 17.6253 12.4 17.6253 12.75V15.3333Z" fill="#863A0A"/>
<path d="M19.3587 23.675C19.0087 24.6417 18.0837 25.3334 17.0004 25.3334C16.3421 25.3334 15.6921 25.0667 15.2337 24.5917C14.9671 24.3417 14.7671 24.0084 14.6504 23.6667C14.7587 23.6834 14.8671 23.6917 14.9837 23.7084C15.1754 23.7334 15.3754 23.7584 15.5754 23.775C16.0504 23.8167 16.5337 23.8417 17.0171 23.8417C17.4921 23.8417 17.9671 23.8167 18.4337 23.775C18.6087 23.7584 18.7837 23.75 18.9504 23.725C19.0837 23.7084 19.2171 23.6917 19.3587 23.675Z" fill="#863A0A"/>
</svg>
