<svg width="18" height="18" viewBox="0 0 18 18" fill="none" xmlns="http://www.w3.org/2000/svg">
<g clip-path="url(#clip0_482_2161)">
<path d="M17.9638 11.4435L15.9825 8.30661V2.53615L15.1759 1.72961H2.82404L2.0175 2.53615V8.30656L0.0361328 11.4435H17.9638ZM14.3694 3.34269V7.36904C13.3299 7.10016 11.5343 6.7686 8.99998 6.7686C6.46564 6.7686 4.67001 7.10016 3.63058 7.36904V3.34269H14.3694Z" fill="#863A0A"/>
<path d="M0 12.436V14.0491H1.87938V16.2704H3.49246V14.0491H14.5075V16.2704H16.1206V14.0491H18V12.436H0Z" fill="#863A0A"/>
<path d="M8.34527 5.92937V4.98968C8.34527 4.43192 7.53578 3.97961 6.53724 3.97961C5.53869 3.97961 4.72925 4.43192 4.72925 4.98968V6.40016C4.72925 6.40016 5.79572 6.13165 6.52875 6.06224C7.18869 5.9997 8.34527 5.92937 8.34527 5.92937Z" fill="#863A0A"/>
<path d="M13.2706 6.40016V4.98968C13.2706 4.43192 12.4611 3.97961 11.4626 3.97961C10.464 3.97961 9.65454 4.43192 9.65454 4.98968V5.92937C9.65454 5.92937 10.8112 5.99965 11.4711 6.06224C12.2042 6.13165 13.2706 6.40016 13.2706 6.40016Z" fill="#863A0A"/>
</g>
<defs>
<clipPath id="clip0_482_2161">
<rect width="18" height="18" fill="white"/>
</clipPath>
</defs>
</svg>
