<svg width="19" height="19" viewBox="0 0 19 19" fill="none" xmlns="http://www.w3.org/2000/svg">
<path d="M1.5835 9.49992C1.5835 5.76796 1.5835 3.90199 2.74287 2.74262C3.90223 1.58325 5.76821 1.58325 9.50016 1.58325C13.2321 1.58325 15.0981 1.58325 16.2574 2.74262C17.4168 3.90199 17.4168 5.76796 17.4168 9.49992C17.4168 13.2318 17.4168 15.0979 16.2574 16.2572C15.0981 17.4166 13.2321 17.4166 9.50016 17.4166C5.76821 17.4166 3.90223 17.4166 2.74287 16.2572C1.5835 15.0979 1.5835 13.2318 1.5835 9.49992Z" fill="#863A0A"/>
<path fill-rule="evenodd" clip-rule="evenodd" d="M9.5 5.7395C9.82791 5.7395 10.0938 6.00534 10.0938 6.33325V9.25395L11.899 11.0593C12.1309 11.2911 12.1309 11.667 11.899 11.8989C11.6671 12.1308 11.2912 12.1308 11.0593 11.8989L9.08018 9.91974C8.96879 9.80843 8.90625 9.65738 8.90625 9.49992V6.33325C8.90625 6.00534 9.17209 5.7395 9.5 5.7395Z" fill="white"/>
</svg>
