<svg width="63" height="20" viewBox="0 0 77 20" fill="none" xmlns="http://www.w3.org/2000/svg">
<rect width="76.041" height="20" rx="5" fill="#9FDCB0"/>
<path d="M10.6186 13.1858C9.97311 13.1858 9.41886 13.0717 8.95591 12.8435C8.49296 12.6153 8.11477 12.3186 7.82134 11.9535C7.53444 11.5883 7.32253 11.1906 7.1856 10.7602C7.04867 10.3299 6.9802 9.91581 6.9802 9.51806V9.30288C6.9802 8.85949 7.04867 8.42262 7.1856 7.99227C7.32905 7.56191 7.54748 7.17068 7.84091 6.81858C8.13433 6.46647 8.506 6.18609 8.95591 5.97744C9.41234 5.76226 9.95028 5.65467 10.5697 5.65467C11.2153 5.65467 11.776 5.77204 12.252 6.00678C12.7345 6.23499 13.1192 6.56102 13.4061 6.98485C13.693 7.40216 13.8658 7.8912 13.9245 8.45196H12.5259C12.4737 8.12594 12.3563 7.85208 12.1738 7.63038C11.9977 7.40216 11.7728 7.23263 11.4989 7.12178C11.225 7.00441 10.9153 6.94573 10.5697 6.94573C10.2176 6.94573 9.90464 7.00767 9.63078 7.13156C9.35692 7.24893 9.1287 7.41846 8.94613 7.64016C8.76356 7.86186 8.62336 8.12268 8.52556 8.42262C8.43427 8.72256 8.38863 9.05511 8.38863 9.42025C8.38863 9.77236 8.43427 10.0984 8.52556 10.3983C8.62336 10.6983 8.76682 10.9623 8.95591 11.1906C9.145 11.4123 9.37648 11.5851 9.65034 11.7089C9.93072 11.8328 10.2535 11.8948 10.6186 11.8948C11.1533 11.8948 11.6032 11.7644 11.9684 11.5035C12.34 11.2362 12.565 10.8645 12.6432 10.3885H14.0419C13.9767 10.8971 13.8039 11.3634 13.5235 11.7872C13.2431 12.211 12.8584 12.5501 12.3694 12.8044C11.8803 13.0587 11.2968 13.1858 10.6186 13.1858ZM18.5687 13.1858C17.9232 13.1858 17.3624 13.0717 16.8864 12.8435C16.4169 12.6153 16.0257 12.3186 15.7127 11.9535C15.4063 11.5818 15.1748 11.184 15.0183 10.7602C14.8683 10.3299 14.7933 9.91581 14.7933 9.51806V9.30288C14.7933 8.86601 14.8716 8.4324 15.0281 8.00205C15.1846 7.56517 15.4193 7.17068 15.7323 6.81858C16.0518 6.46647 16.4463 6.18609 16.9157 5.97744C17.3852 5.76226 17.9362 5.65467 18.5687 5.65467C19.1947 5.65467 19.7424 5.76226 20.2118 5.97744C20.6813 6.18609 21.0726 6.46647 21.3855 6.81858C21.705 7.17068 21.943 7.56517 22.0995 8.00205C22.256 8.4324 22.3343 8.86601 22.3343 9.30288V9.51806C22.3343 9.91581 22.256 10.3299 22.0995 10.7602C21.9496 11.184 21.7181 11.5818 21.4051 11.9535C21.0986 12.3186 20.7074 12.6153 20.2314 12.8435C19.7619 13.0717 19.2077 13.1858 18.5687 13.1858ZM18.5687 11.8948C18.9338 11.8948 19.2599 11.8296 19.5468 11.6992C19.8402 11.5688 20.088 11.3894 20.2901 11.1612C20.4988 10.9265 20.6552 10.6624 20.7596 10.369C20.8704 10.069 20.9258 9.7528 20.9258 9.42025C20.9258 9.06163 20.8704 8.73234 20.7596 8.4324C20.6552 8.13246 20.4988 7.87164 20.2901 7.64994C20.088 7.42824 19.8402 7.25545 19.5468 7.13156C19.2533 7.00767 18.9273 6.94573 18.5687 6.94573C18.2035 6.94573 17.8743 7.00767 17.5808 7.13156C17.2874 7.25545 17.0364 7.42824 16.8277 7.64994C16.6256 7.87164 16.4691 8.13246 16.3582 8.4324C16.2539 8.73234 16.2017 9.06163 16.2017 9.42025C16.2017 9.7528 16.2539 10.069 16.3582 10.369C16.4691 10.6624 16.6256 10.9265 16.8277 11.1612C17.0364 11.3894 17.2874 11.5688 17.5808 11.6992C17.8743 11.8296 18.2035 11.8948 18.5687 11.8948ZM23.6765 13V5.86007H25.574L27.3639 10.1245H27.5399L29.32 5.86007H31.2468V13H29.8677V6.9066L30.0438 6.92617L28.117 11.5427H26.6988L24.7622 6.92617L24.948 6.9066V13H23.6765ZM34.2016 10.8091V9.60609H35.5904C35.8708 9.60609 36.1056 9.55066 36.2947 9.43981C36.4903 9.32897 36.637 9.17573 36.7348 8.98012C36.8391 8.78451 36.8913 8.55955 36.8913 8.30525C36.8913 8.05095 36.8391 7.82599 36.7348 7.63038C36.637 7.43476 36.4903 7.28479 36.2947 7.18047C36.1056 7.06962 35.8708 7.01419 35.5904 7.01419H34.2016V5.81116H35.4731C36.073 5.81116 36.5816 5.90897 36.9989 6.10458C37.4227 6.3002 37.7455 6.58058 37.9672 6.94573C38.1889 7.30435 38.2997 7.73145 38.2997 8.227V8.3835C38.2997 8.87905 38.1889 9.3094 37.9672 9.67455C37.7455 10.0332 37.4227 10.3136 36.9989 10.5157C36.5816 10.7113 36.073 10.8091 35.4731 10.8091H34.2016ZM33.0083 13V5.81116H34.3972V13H33.0083ZM39.446 13V5.86007H40.8349V13H39.446ZM40.6393 13V11.7774H43.7202V13H40.6393ZM44.8522 13V5.86007H46.2117V13H44.8522ZM46.0161 13V11.8263H49.2535V13H46.0161ZM46.0161 9.95819V8.78451H48.9992V9.95819H46.0161ZM46.0161 7.03375V5.86007H49.1753V7.03375H46.0161ZM52.087 13V6.88704H53.4759V13H52.087ZM50.0233 7.08266V5.86007H55.5396V7.08266H50.0233ZM56.6483 13V5.86007H58.0078V13H56.6483ZM57.8122 13V11.8263H61.0496V13H57.8122ZM57.8122 9.95819V8.78451H60.7953V9.95819H57.8122ZM57.8122 7.03375V5.86007H60.9714V7.03375H57.8122ZM63.6679 13.0391V11.7481H65.1448C65.5165 11.7481 65.8458 11.6926 66.1327 11.5818C66.4261 11.4644 66.6739 11.3014 66.876 11.0928C67.0782 10.8841 67.2314 10.6396 67.3357 10.3592C67.4466 10.0723 67.502 9.75606 67.502 9.41047C67.502 9.05185 67.4466 8.73234 67.3357 8.45196C67.2314 8.16506 67.0782 7.92054 66.876 7.71841C66.6739 7.51627 66.4261 7.36304 66.1327 7.25871C65.8458 7.15438 65.5165 7.10222 65.1448 7.10222H63.6679V5.81116H65.0568C65.7023 5.81116 66.2664 5.90571 66.7489 6.0948C67.2314 6.2839 67.6324 6.54472 67.9519 6.87726C68.2714 7.20329 68.5094 7.57821 68.6659 8.00205C68.8289 8.41936 68.9104 8.85297 68.9104 9.30288V9.51806C68.9104 9.94841 68.8289 10.3722 68.6659 10.7896C68.5094 11.2069 68.2714 11.5851 67.9519 11.9241C67.6324 12.2632 67.2314 12.5338 66.7489 12.7359C66.2664 12.9381 65.7023 13.0391 65.0568 13.0391H63.6679ZM62.4747 13.0391V5.81116H63.8636V13.0391H62.4747Z" fill="#107C2D"/>
</svg>
