<svg width="10" height="10" viewBox="0 0 10 10" fill="none" xmlns="http://www.w3.org/2000/svg">
<path d="M1.14091 7.54327C2.58423 9.62119 5.44204 10.1362 7.51996 8.69291C9.59788 7.2496 10.1129 4.39179 8.6696 2.31387C7.22628 0.235952 4.36847 -0.279087 2.29055 1.16423C0.212636 2.60754 -0.302403 5.46536 1.14091 7.54327ZM4.36999 3.33044L6.28371 3.67534C6.37939 3.69258 6.45542 3.7458 6.5051 3.81732C6.55478 3.88885 6.57811 3.97867 6.56087 4.07436L6.21597 5.98807C6.18263 6.17306 6.00195 6.29857 5.81695 6.26523C5.63196 6.23189 5.50646 6.0512 5.53979 5.86621L5.73753 4.76901L3.78384 6.12604C3.6295 6.23325 3.41261 6.19416 3.30541 6.03982C3.19821 5.88548 3.2373 5.66859 3.39163 5.56139L5.34533 4.20436L4.24813 4.00662C4.06314 3.97328 3.93763 3.7926 3.97097 3.6076C4.00431 3.42261 4.185 3.29711 4.36999 3.33044Z" fill="#863A0A"/>
</svg>
