<svg width="16" height="16" viewBox="0 0 16 16" fill="none" xmlns="http://www.w3.org/2000/svg">
<path d="M11.1425 0.5H4.8575C2.1275 0.5 0.5 2.1275 0.5 4.8575V11.135C0.5 13.8725 2.1275 15.5 4.8575 15.5H11.135C13.865 15.5 15.4925 13.8725 15.4925 11.1425V4.8575C15.5 2.1275 13.8725 0.5 11.1425 0.5ZM11.585 6.275L7.3325 10.5275C7.2275 10.6325 7.085 10.6925 6.935 10.6925C6.785 10.6925 6.6425 10.6325 6.5375 10.5275L4.415 8.405C4.1975 8.1875 4.1975 7.8275 4.415 7.61C4.6325 7.3925 4.9925 7.3925 5.21 7.61L6.935 9.335L10.79 5.48C11.0075 5.2625 11.3675 5.2625 11.585 5.48C11.8025 5.6975 11.8025 6.05 11.585 6.275Z" fill="#37B319"/>
</svg>
