<svg width="83" height="41" viewBox="0 0 83 41" fill="none" xmlns="http://www.w3.org/2000/svg">
<rect x="0.4" y="0.4" width="82.2" height="40.2" rx="4.6" fill="#E9D3C5" stroke="#863A0A" stroke-width="0.8"/>
<path d="M26.0819 31V25.16H26.8659V31H26.0819ZM22.1299 31V25.16H22.9139V31H22.1299ZM22.7539 28.448V27.744H26.2419V28.448H22.7539ZM30.5756 31.144C30.2022 31.144 29.8742 31.08 29.5916 30.952C29.3089 30.824 29.0689 30.656 28.8716 30.448C28.6796 30.2347 28.5329 29.9973 28.4316 29.736C28.3356 29.4747 28.2876 29.208 28.2876 28.936V28.792C28.2876 28.52 28.3382 28.2533 28.4396 27.992C28.5409 27.7253 28.6902 27.488 28.8876 27.28C29.0849 27.0667 29.3249 26.8987 29.6076 26.776C29.8902 26.648 30.2129 26.584 30.5756 26.584C30.9382 26.584 31.2609 26.648 31.5436 26.776C31.8262 26.8987 32.0662 27.0667 32.2636 27.28C32.4609 27.488 32.6102 27.7253 32.7116 27.992C32.8129 28.2533 32.8636 28.52 32.8636 28.792V28.936C32.8636 29.208 32.8129 29.4747 32.7116 29.736C32.6156 29.9973 32.4689 30.2347 32.2716 30.448C32.0796 30.656 31.8422 30.824 31.5596 30.952C31.2769 31.08 30.9489 31.144 30.5756 31.144ZM30.5756 30.456C30.8956 30.456 31.1676 30.3867 31.3916 30.248C31.6209 30.104 31.7942 29.912 31.9116 29.672C32.0342 29.432 32.0956 29.1627 32.0956 28.864C32.0956 28.56 32.0342 28.288 31.9116 28.048C31.7889 27.808 31.6129 27.6187 31.3836 27.48C31.1596 27.3413 30.8902 27.272 30.5756 27.272C30.2662 27.272 29.9969 27.3413 29.7676 27.48C29.5382 27.6187 29.3622 27.808 29.2396 28.048C29.1169 28.288 29.0556 28.56 29.0556 28.864C29.0556 29.1627 29.1142 29.432 29.2316 29.672C29.3542 29.912 29.5276 30.104 29.7516 30.248C29.9809 30.3867 30.2556 30.456 30.5756 30.456ZM35.5738 31.128C35.0138 31.128 34.5791 31.008 34.2698 30.768C33.9658 30.528 33.8085 30.2 33.7978 29.784H34.5178C34.5285 29.9493 34.6111 30.1067 34.7658 30.256C34.9258 30.4 35.1951 30.472 35.5738 30.472C35.9151 30.472 36.1765 30.4053 36.3578 30.272C36.5391 30.1333 36.6298 29.9653 36.6298 29.768C36.6298 29.592 36.5631 29.456 36.4298 29.36C36.2965 29.2587 36.0805 29.192 35.7818 29.16L35.3178 29.112C34.9125 29.0693 34.5818 28.9493 34.3258 28.752C34.0698 28.5493 33.9418 28.2667 33.9418 27.904C33.9418 27.632 34.0111 27.4 34.1498 27.208C34.2885 27.0107 34.4805 26.8613 34.7258 26.76C34.9711 26.6533 35.2538 26.6 35.5738 26.6C36.0538 26.6 36.4431 26.7067 36.7418 26.92C37.0405 27.1333 37.1951 27.4507 37.2058 27.872H36.4858C36.4805 27.7013 36.4005 27.5573 36.2458 27.44C36.0965 27.3173 35.8725 27.256 35.5738 27.256C35.2751 27.256 35.0485 27.3173 34.8938 27.44C34.7391 27.5627 34.6618 27.7173 34.6618 27.904C34.6618 28.064 34.7151 28.192 34.8218 28.288C34.9338 28.384 35.1151 28.4453 35.3658 28.472L35.8298 28.52C36.2885 28.568 36.6565 28.696 36.9338 28.904C37.2111 29.1067 37.3498 29.3947 37.3498 29.768C37.3498 30.0347 37.2725 30.272 37.1178 30.48C36.9685 30.6827 36.7605 30.8427 36.4938 30.96C36.2271 31.072 35.9205 31.128 35.5738 31.128ZM40.2869 31.048C39.9669 31.048 39.6895 31.0027 39.4549 30.912C39.2255 30.8213 39.0469 30.6667 38.9189 30.448C38.7962 30.224 38.7349 29.9227 38.7349 29.544V25.432H39.4709V29.64C39.4709 29.8693 39.5322 30.048 39.6549 30.176C39.7829 30.2987 39.9615 30.36 40.1909 30.36H40.9429V31.048H40.2869ZM37.9989 27.304V26.728H40.9429V27.304H37.9989ZM43.9739 31.144C43.6005 31.144 43.2779 31.08 43.0059 30.952C42.7339 30.824 42.5125 30.656 42.3419 30.448C42.1712 30.2347 42.0432 29.9973 41.9579 29.736C41.8779 29.4747 41.8379 29.208 41.8379 28.936V28.792C41.8379 28.5147 41.8779 28.2453 41.9579 27.984C42.0432 27.7227 42.1712 27.488 42.3419 27.28C42.5125 27.0667 42.7285 26.8987 42.9899 26.776C43.2565 26.648 43.5685 26.584 43.9259 26.584C44.3899 26.584 44.7712 26.6853 45.0699 26.888C45.3739 27.0853 45.5979 27.3413 45.7419 27.656C45.8912 27.9707 45.9659 28.3067 45.9659 28.664V29.008H42.1739V28.432H45.4059L45.2299 28.744C45.2299 28.44 45.1819 28.1787 45.0859 27.96C44.9899 27.736 44.8459 27.5627 44.6539 27.44C44.4619 27.3173 44.2192 27.256 43.9259 27.256C43.6219 27.256 43.3685 27.3253 43.1659 27.464C42.9685 27.6027 42.8192 27.792 42.7179 28.032C42.6219 28.272 42.5739 28.5493 42.5739 28.864C42.5739 29.168 42.6219 29.4427 42.7179 29.688C42.8192 29.928 42.9739 30.12 43.1819 30.264C43.3899 30.4027 43.6539 30.472 43.9739 30.472C44.3099 30.472 44.5819 30.3973 44.7899 30.248C45.0032 30.0987 45.1312 29.9253 45.1739 29.728H45.8939C45.8352 30.0213 45.7179 30.2747 45.5419 30.488C45.3659 30.7013 45.1445 30.864 44.8779 30.976C44.6112 31.088 44.3099 31.144 43.9739 31.144ZM47.2643 31V25.16H48.0323V31H47.2643ZM46.6723 25.768V25.16H48.0323V25.768H46.6723ZM51.4814 31.144C51.108 31.144 50.7854 31.08 50.5134 30.952C50.2414 30.824 50.02 30.656 49.8494 30.448C49.6787 30.2347 49.5507 29.9973 49.4654 29.736C49.3854 29.4747 49.3454 29.208 49.3454 28.936V28.792C49.3454 28.5147 49.3854 28.2453 49.4654 27.984C49.5507 27.7227 49.6787 27.488 49.8494 27.28C50.02 27.0667 50.236 26.8987 50.4974 26.776C50.764 26.648 51.076 26.584 51.4334 26.584C51.8974 26.584 52.2787 26.6853 52.5774 26.888C52.8814 27.0853 53.1054 27.3413 53.2494 27.656C53.3987 27.9707 53.4734 28.3067 53.4734 28.664V29.008H49.6814V28.432H52.9134L52.7374 28.744C52.7374 28.44 52.6894 28.1787 52.5934 27.96C52.4974 27.736 52.3534 27.5627 52.1614 27.44C51.9694 27.3173 51.7267 27.256 51.4334 27.256C51.1294 27.256 50.876 27.3253 50.6734 27.464C50.476 27.6027 50.3267 27.792 50.2254 28.032C50.1294 28.272 50.0814 28.5493 50.0814 28.864C50.0814 29.168 50.1294 29.4427 50.2254 29.688C50.3267 29.928 50.4814 30.12 50.6894 30.264C50.8974 30.4027 51.1614 30.472 51.4814 30.472C51.8174 30.472 52.0894 30.3973 52.2974 30.248C52.5107 30.0987 52.6387 29.9253 52.6814 29.728H53.4014C53.3427 30.0213 53.2254 30.2747 53.0494 30.488C52.8734 30.7013 52.652 30.864 52.3854 30.976C52.1187 31.088 51.8174 31.144 51.4814 31.144ZM54.7238 31V26.728H55.3318V28.488H55.2998C55.2998 27.864 55.4358 27.408 55.7078 27.12C55.9851 26.8267 56.3985 26.68 56.9478 26.68H57.0918V27.368H56.8198C56.3931 27.368 56.0651 27.4827 55.8358 27.712C55.6065 27.936 55.4918 28.2613 55.4918 28.688V31H54.7238ZM59.5651 31.128C59.0051 31.128 58.5704 31.008 58.2611 30.768C57.9571 30.528 57.7997 30.2 57.7891 29.784H58.5091C58.5197 29.9493 58.6024 30.1067 58.7571 30.256C58.9171 30.4 59.1864 30.472 59.5651 30.472C59.9064 30.472 60.1677 30.4053 60.3491 30.272C60.5304 30.1333 60.6211 29.9653 60.6211 29.768C60.6211 29.592 60.5544 29.456 60.4211 29.36C60.2877 29.2587 60.0717 29.192 59.7731 29.16L59.3091 29.112C58.9037 29.0693 58.5731 28.9493 58.3171 28.752C58.0611 28.5493 57.9331 28.2667 57.9331 27.904C57.9331 27.632 58.0024 27.4 58.1411 27.208C58.2797 27.0107 58.4717 26.8613 58.7171 26.76C58.9624 26.6533 59.2451 26.6 59.5651 26.6C60.0451 26.6 60.4344 26.7067 60.7331 26.92C61.0317 27.1333 61.1864 27.4507 61.1971 27.872H60.4771C60.4717 27.7013 60.3917 27.5573 60.2371 27.44C60.0877 27.3173 59.8637 27.256 59.5651 27.256C59.2664 27.256 59.0397 27.3173 58.8851 27.44C58.7304 27.5627 58.6531 27.7173 58.6531 27.904C58.6531 28.064 58.7064 28.192 58.8131 28.288C58.9251 28.384 59.1064 28.4453 59.3571 28.472L59.8211 28.52C60.2797 28.568 60.6477 28.696 60.9251 28.904C61.2024 29.1067 61.3411 29.3947 61.3411 29.768C61.3411 30.0347 61.2637 30.272 61.1091 30.48C60.9597 30.6827 60.7517 30.8427 60.4851 30.96C60.2184 31.072 59.9117 31.128 59.5651 31.128Z" fill="#565454"/>
<path d="M23.5996 20V11.654L24.1716 12.096H21.6626V10.51H25.4326V20H23.5996ZM30.526 20.247C29.7807 20.247 29.1393 20.0997 28.602 19.805C28.0733 19.5103 27.666 19.1203 27.38 18.635C27.1027 18.141 26.964 17.6037 26.964 17.023H28.745C28.745 17.3523 28.8187 17.6427 28.966 17.894C29.122 18.1453 29.3343 18.3447 29.603 18.492C29.8717 18.6307 30.1837 18.7 30.539 18.7C30.9117 18.7 31.2323 18.622 31.501 18.466C31.7697 18.31 31.9733 18.0977 32.112 17.829C32.2593 17.5603 32.333 17.2527 32.333 16.906C32.333 16.568 32.2593 16.2647 32.112 15.996C31.9733 15.7187 31.7697 15.502 31.501 15.346C31.241 15.1813 30.9247 15.099 30.552 15.099C30.24 15.099 29.9453 15.1597 29.668 15.281C29.3907 15.4023 29.174 15.5627 29.018 15.762H27.315L27.796 10.51H33.295V12.083H28.602L29.252 11.576L28.94 14.852L28.498 14.722C28.7493 14.436 29.057 14.1977 29.421 14.007C29.785 13.8163 30.2443 13.721 30.799 13.721C31.501 13.721 32.099 13.864 32.593 14.15C33.087 14.436 33.464 14.8173 33.724 15.294C33.984 15.762 34.114 16.2733 34.114 16.828V16.997C34.114 17.5603 33.9753 18.089 33.698 18.583C33.4207 19.077 33.0133 19.48 32.476 19.792C31.9473 20.0953 31.2973 20.247 30.526 20.247ZM39.1414 20.247C38.396 20.247 37.7634 20.1257 37.2434 19.883C36.7234 19.6317 36.2987 19.2937 35.9694 18.869C35.64 18.4357 35.3974 17.9417 35.2414 17.387C35.094 16.8237 35.0204 16.2343 35.0204 15.619V14.891C35.0204 14.0157 35.1677 13.227 35.4624 12.525C35.757 11.823 36.2077 11.2683 36.8144 10.861C37.421 10.445 38.1967 10.237 39.1414 10.237C40.0774 10.237 40.8487 10.445 41.4554 10.861C42.062 11.2683 42.5084 11.823 42.7944 12.525C43.089 13.227 43.2364 14.0157 43.2364 14.891V15.619C43.2364 16.2343 43.1584 16.8237 43.0024 17.387C42.855 17.9417 42.6167 18.4357 42.2874 18.869C41.9667 19.2937 41.5464 19.6317 41.0264 19.883C40.5064 20.1257 39.878 20.247 39.1414 20.247ZM39.1414 18.557C39.9127 18.557 40.4804 18.2927 40.8444 17.764C41.2084 17.2267 41.3904 16.3947 41.3904 15.268C41.3904 14.072 41.204 13.2183 40.8314 12.707C40.4587 12.187 39.8954 11.927 39.1414 11.927C38.3787 11.927 37.8067 12.187 37.4254 12.707C37.0527 13.2183 36.8664 14.0633 36.8664 15.242C36.8664 16.3773 37.0527 17.2137 37.4254 17.751C37.798 18.2883 38.37 18.557 39.1414 18.557ZM48.5775 20.247C47.8322 20.247 47.1995 20.1257 46.6795 19.883C46.1595 19.6317 45.7349 19.2937 45.4055 18.869C45.0762 18.4357 44.8335 17.9417 44.6775 17.387C44.5302 16.8237 44.4565 16.2343 44.4565 15.619V14.891C44.4565 14.0157 44.6039 13.227 44.8985 12.525C45.1932 11.823 45.6439 11.2683 46.2505 10.861C46.8572 10.445 47.6329 10.237 48.5775 10.237C49.5135 10.237 50.2849 10.445 50.8915 10.861C51.4982 11.2683 51.9445 11.823 52.2305 12.525C52.5252 13.227 52.6725 14.0157 52.6725 14.891V15.619C52.6725 16.2343 52.5945 16.8237 52.4385 17.387C52.2912 17.9417 52.0529 18.4357 51.7235 18.869C51.4029 19.2937 50.9825 19.6317 50.4625 19.883C49.9425 20.1257 49.3142 20.247 48.5775 20.247ZM48.5775 18.557C49.3489 18.557 49.9165 18.2927 50.2805 17.764C50.6445 17.2267 50.8265 16.3947 50.8265 15.268C50.8265 14.072 50.6402 13.2183 50.2675 12.707C49.8949 12.187 49.3315 11.927 48.5775 11.927C47.8149 11.927 47.2429 12.187 46.8615 12.707C46.4889 13.2183 46.3025 14.0633 46.3025 15.242C46.3025 16.3773 46.4889 17.2137 46.8615 17.751C47.2342 18.2883 47.8062 18.557 48.5775 18.557ZM56.1547 18.739V12.317H57.7407V18.739H56.1547ZM53.8017 16.256V14.8H60.0937V16.256H53.8017Z" fill="#863A0A"/>
</svg>
