<svg width="83" height="41" viewBox="0 0 83 41" fill="none" xmlns="http://www.w3.org/2000/svg">
<rect x="0.4" y="0.4" width="82.2" height="40.2" rx="4.6" fill="#E9D3C5" stroke="#863A0A" stroke-width="0.8"/>
<path d="M11.3118 31V25.128H12.0958V31H11.3118ZM14.9198 31L12.9838 28.4H13.9038L15.8718 31H14.9198ZM11.7998 28.888V28.192H13.3678C13.6131 28.192 13.8238 28.1413 13.9998 28.04C14.1758 27.9387 14.3118 27.8 14.4078 27.624C14.5038 27.4427 14.5518 27.2373 14.5518 27.008C14.5518 26.7787 14.5038 26.576 14.4078 26.4C14.3118 26.2187 14.1758 26.0773 13.9998 25.976C13.8238 25.8693 13.6131 25.816 13.3678 25.816H11.7998V25.128H13.2238C13.6504 25.128 14.0238 25.192 14.3438 25.32C14.6638 25.448 14.9118 25.6453 15.0878 25.912C15.2638 26.1787 15.3518 26.5227 15.3518 26.944V27.072C15.3518 27.4933 15.2611 27.8373 15.0798 28.104C14.9038 28.3707 14.6558 28.568 14.3358 28.696C14.0211 28.824 13.6504 28.888 13.2238 28.888H11.7998ZM18.8512 31.144C18.4779 31.144 18.1499 31.08 17.8672 30.952C17.5845 30.824 17.3445 30.656 17.1472 30.448C16.9552 30.2347 16.8085 29.9973 16.7072 29.736C16.6112 29.4747 16.5632 29.208 16.5632 28.936V28.792C16.5632 28.52 16.6139 28.2533 16.7152 27.992C16.8165 27.7253 16.9659 27.488 17.1632 27.28C17.3605 27.0667 17.6005 26.8987 17.8832 26.776C18.1659 26.648 18.4885 26.584 18.8512 26.584C19.2139 26.584 19.5365 26.648 19.8192 26.776C20.1019 26.8987 20.3419 27.0667 20.5392 27.28C20.7365 27.488 20.8859 27.7253 20.9872 27.992C21.0885 28.2533 21.1392 28.52 21.1392 28.792V28.936C21.1392 29.208 21.0885 29.4747 20.9872 29.736C20.8912 29.9973 20.7445 30.2347 20.5472 30.448C20.3552 30.656 20.1179 30.824 19.8352 30.952C19.5525 31.08 19.2245 31.144 18.8512 31.144ZM18.8512 30.456C19.1712 30.456 19.4432 30.3867 19.6672 30.248C19.8965 30.104 20.0699 29.912 20.1872 29.672C20.3099 29.432 20.3712 29.1627 20.3712 28.864C20.3712 28.56 20.3099 28.288 20.1872 28.048C20.0645 27.808 19.8885 27.6187 19.6592 27.48C19.4352 27.3413 19.1659 27.272 18.8512 27.272C18.5419 27.272 18.2725 27.3413 18.0432 27.48C17.8139 27.6187 17.6379 27.808 17.5152 28.048C17.3925 28.288 17.3312 28.56 17.3312 28.864C17.3312 29.1627 17.3899 29.432 17.5072 29.672C17.6299 29.912 17.8032 30.104 18.0272 30.248C18.2565 30.3867 18.5312 30.456 18.8512 30.456ZM24.4174 31.144C24.0441 31.144 23.7161 31.08 23.4334 30.952C23.1508 30.824 22.9108 30.656 22.7134 30.448C22.5214 30.2347 22.3748 29.9973 22.2734 29.736C22.1774 29.4747 22.1294 29.208 22.1294 28.936V28.792C22.1294 28.52 22.1801 28.2533 22.2814 27.992C22.3828 27.7253 22.5321 27.488 22.7294 27.28C22.9268 27.0667 23.1668 26.8987 23.4494 26.776C23.7321 26.648 24.0548 26.584 24.4174 26.584C24.7801 26.584 25.1028 26.648 25.3854 26.776C25.6681 26.8987 25.9081 27.0667 26.1054 27.28C26.3028 27.488 26.4521 27.7253 26.5534 27.992C26.6548 28.2533 26.7054 28.52 26.7054 28.792V28.936C26.7054 29.208 26.6548 29.4747 26.5534 29.736C26.4574 29.9973 26.3108 30.2347 26.1134 30.448C25.9214 30.656 25.6841 30.824 25.4014 30.952C25.1188 31.08 24.7908 31.144 24.4174 31.144ZM24.4174 30.456C24.7374 30.456 25.0094 30.3867 25.2334 30.248C25.4628 30.104 25.6361 29.912 25.7534 29.672C25.8761 29.432 25.9374 29.1627 25.9374 28.864C25.9374 28.56 25.8761 28.288 25.7534 28.048C25.6308 27.808 25.4548 27.6187 25.2254 27.48C25.0014 27.3413 24.7321 27.272 24.4174 27.272C24.1081 27.272 23.8388 27.3413 23.6094 27.48C23.3801 27.6187 23.2041 27.808 23.0814 28.048C22.9588 28.288 22.8974 28.56 22.8974 28.864C22.8974 29.1627 22.9561 29.432 23.0734 29.672C23.1961 29.912 23.3694 30.104 23.5934 30.248C23.8228 30.3867 24.0974 30.456 24.4174 30.456ZM28.0157 31V26.728H28.6237V28.56H28.5277C28.5277 28.144 28.581 27.792 28.6877 27.504C28.7997 27.2107 28.965 26.9867 29.1837 26.832C29.4024 26.6773 29.6797 26.6 30.0157 26.6H30.0477C30.3837 26.6 30.661 26.6773 30.8797 26.832C31.1037 26.9867 31.269 27.2107 31.3757 27.504C31.4824 27.792 31.5357 28.144 31.5357 28.56H31.3117C31.3117 28.144 31.3677 27.792 31.4797 27.504C31.5917 27.2107 31.757 26.9867 31.9757 26.832C32.1997 26.6773 32.4797 26.6 32.8157 26.6H32.8477C33.1837 26.6 33.4637 26.6773 33.6877 26.832C33.9117 26.9867 34.077 27.2107 34.1837 27.504C34.2957 27.792 34.3517 28.144 34.3517 28.56V31H33.5837V28.392C33.5837 28.0453 33.4984 27.7787 33.3277 27.592C33.157 27.4 32.9197 27.304 32.6157 27.304C32.301 27.304 32.0477 27.4053 31.8557 27.608C31.6637 27.8053 31.5677 28.0827 31.5677 28.44V31H30.7997V28.392C30.7997 28.0453 30.7144 27.7787 30.5437 27.592C30.373 27.4 30.1357 27.304 29.8317 27.304C29.517 27.304 29.2637 27.4053 29.0717 27.608C28.8797 27.8053 28.7837 28.0827 28.7837 28.44V31H28.0157ZM37.3179 31.128C36.7579 31.128 36.3232 31.008 36.0139 30.768C35.7099 30.528 35.5525 30.2 35.5419 29.784H36.2619C36.2725 29.9493 36.3552 30.1067 36.5099 30.256C36.6699 30.4 36.9392 30.472 37.3179 30.472C37.6592 30.472 37.9205 30.4053 38.1019 30.272C38.2832 30.1333 38.3739 29.9653 38.3739 29.768C38.3739 29.592 38.3072 29.456 38.1739 29.36C38.0405 29.2587 37.8245 29.192 37.5259 29.16L37.0619 29.112C36.6565 29.0693 36.3259 28.9493 36.0699 28.752C35.8139 28.5493 35.6859 28.2667 35.6859 27.904C35.6859 27.632 35.7552 27.4 35.8939 27.208C36.0325 27.0107 36.2245 26.8613 36.4699 26.76C36.7152 26.6533 36.9979 26.6 37.3179 26.6C37.7979 26.6 38.1872 26.7067 38.4859 26.92C38.7845 27.1333 38.9392 27.4507 38.9499 27.872H38.2299C38.2245 27.7013 38.1445 27.5573 37.9899 27.44C37.8405 27.3173 37.6165 27.256 37.3179 27.256C37.0192 27.256 36.7925 27.3173 36.6379 27.44C36.4832 27.5627 36.4059 27.7173 36.4059 27.904C36.4059 28.064 36.4592 28.192 36.5659 28.288C36.6779 28.384 36.8592 28.4453 37.1099 28.472L37.5739 28.52C38.0325 28.568 38.4005 28.696 38.6779 28.904C38.9552 29.1067 39.0939 29.3947 39.0939 29.768C39.0939 30.0347 39.0165 30.272 38.8619 30.48C38.7125 30.6827 38.5045 30.8427 38.2379 30.96C37.9712 31.072 37.6645 31.128 37.3179 31.128ZM43.0833 31.032V30.344H44.7153C45.0299 30.344 45.2726 30.256 45.4433 30.08C45.6193 29.8987 45.7073 29.6587 45.7073 29.36C45.7073 29.056 45.6219 28.8187 45.4513 28.648C45.2806 28.472 45.0353 28.384 44.7153 28.384H43.0833V27.872H44.6033C44.9766 27.872 45.3046 27.9173 45.5872 28.008C45.8752 28.0987 46.0992 28.2507 46.2593 28.464C46.4246 28.672 46.5073 28.9573 46.5073 29.32V29.432C46.5073 29.7733 46.4379 30.064 46.2993 30.304C46.1606 30.5387 45.9499 30.72 45.6673 30.848C45.3846 30.9707 45.0299 31.032 44.6033 31.032H43.0833ZM42.4592 31.032V25.128H43.2433V31.032H42.4592ZM43.0833 28.24V27.728H44.4993C44.8299 27.728 45.0726 27.64 45.2273 27.464C45.3873 27.2827 45.4673 27.0533 45.4673 26.776C45.4673 26.4933 45.3873 26.264 45.2273 26.088C45.0726 25.9067 44.8299 25.816 44.4993 25.816H43.0833V25.128H44.3633C45.0033 25.128 45.4806 25.264 45.7952 25.536C46.1099 25.8027 46.2673 26.1893 46.2673 26.696V26.808C46.2673 27.1653 46.1873 27.4507 46.0273 27.664C45.8673 27.872 45.6433 28.0213 45.3553 28.112C45.0726 28.1973 44.7419 28.24 44.3633 28.24H43.0833ZM49.8815 31.144C49.5082 31.144 49.1802 31.08 48.8975 30.952C48.6148 30.824 48.3748 30.656 48.1775 30.448C47.9855 30.2347 47.8388 29.9973 47.7375 29.736C47.6415 29.4747 47.5935 29.208 47.5935 28.936V28.792C47.5935 28.52 47.6442 28.2533 47.7455 27.992C47.8468 27.7253 47.9962 27.488 48.1935 27.28C48.3908 27.0667 48.6308 26.8987 48.9135 26.776C49.1962 26.648 49.5188 26.584 49.8815 26.584C50.2442 26.584 50.5668 26.648 50.8495 26.776C51.1322 26.8987 51.3722 27.0667 51.5695 27.28C51.7668 27.488 51.9162 27.7253 52.0175 27.992C52.1188 28.2533 52.1695 28.52 52.1695 28.792V28.936C52.1695 29.208 52.1188 29.4747 52.0175 29.736C51.9215 29.9973 51.7748 30.2347 51.5775 30.448C51.3855 30.656 51.1482 30.824 50.8655 30.952C50.5828 31.08 50.2548 31.144 49.8815 31.144ZM49.8815 30.456C50.2015 30.456 50.4735 30.3867 50.6975 30.248C50.9268 30.104 51.1002 29.912 51.2175 29.672C51.3402 29.432 51.4015 29.1627 51.4015 28.864C51.4015 28.56 51.3402 28.288 51.2175 28.048C51.0948 27.808 50.9188 27.6187 50.6895 27.48C50.4655 27.3413 50.1962 27.272 49.8815 27.272C49.5722 27.272 49.3028 27.3413 49.0735 27.48C48.8442 27.6187 48.6682 27.808 48.5455 28.048C48.4228 28.288 48.3615 28.56 48.3615 28.864C48.3615 29.1627 48.4202 29.432 48.5375 29.672C48.6602 29.912 48.8335 30.104 49.0575 30.248C49.2868 30.3867 49.5615 30.456 49.8815 30.456ZM55.4478 31.144C55.0744 31.144 54.7464 31.08 54.4638 30.952C54.1811 30.824 53.9411 30.656 53.7438 30.448C53.5518 30.2347 53.4051 29.9973 53.3038 29.736C53.2078 29.4747 53.1598 29.208 53.1598 28.936V28.792C53.1598 28.52 53.2104 28.2533 53.3118 27.992C53.4131 27.7253 53.5624 27.488 53.7598 27.28C53.9571 27.0667 54.1971 26.8987 54.4798 26.776C54.7624 26.648 55.0851 26.584 55.4478 26.584C55.8104 26.584 56.1331 26.648 56.4158 26.776C56.6984 26.8987 56.9384 27.0667 57.1358 27.28C57.3331 27.488 57.4824 27.7253 57.5838 27.992C57.6851 28.2533 57.7358 28.52 57.7358 28.792V28.936C57.7358 29.208 57.6851 29.4747 57.5838 29.736C57.4878 29.9973 57.3411 30.2347 57.1438 30.448C56.9518 30.656 56.7144 30.824 56.4318 30.952C56.1491 31.08 55.8211 31.144 55.4478 31.144ZM55.4478 30.456C55.7678 30.456 56.0398 30.3867 56.2638 30.248C56.4931 30.104 56.6664 29.912 56.7838 29.672C56.9064 29.432 56.9678 29.1627 56.9678 28.864C56.9678 28.56 56.9064 28.288 56.7838 28.048C56.6611 27.808 56.4851 27.6187 56.2558 27.48C56.0318 27.3413 55.7624 27.272 55.4478 27.272C55.1384 27.272 54.8691 27.3413 54.6398 27.48C54.4104 27.6187 54.2344 27.808 54.1118 28.048C53.9891 28.288 53.9278 28.56 53.9278 28.864C53.9278 29.1627 53.9864 29.432 54.1038 29.672C54.2264 29.912 54.3998 30.104 54.6238 30.248C54.8531 30.3867 55.1278 30.456 55.4478 30.456ZM61.99 31L60.382 29.008H59.678L61.638 26.728H62.446L60.67 28.784L60.726 28.376L62.878 31H61.99ZM59.046 31V25.16H59.814V31H59.046ZM65.5142 31.144C65.1409 31.144 64.8182 31.08 64.5462 30.952C64.2742 30.824 64.0529 30.656 63.8822 30.448C63.7115 30.2347 63.5835 29.9973 63.4982 29.736C63.4182 29.4747 63.3782 29.208 63.3782 28.936V28.792C63.3782 28.5147 63.4182 28.2453 63.4982 27.984C63.5835 27.7227 63.7115 27.488 63.8822 27.28C64.0529 27.0667 64.2689 26.8987 64.5302 26.776C64.7969 26.648 65.1089 26.584 65.4662 26.584C65.9302 26.584 66.3115 26.6853 66.6102 26.888C66.9142 27.0853 67.1382 27.3413 67.2822 27.656C67.4315 27.9707 67.5062 28.3067 67.5062 28.664V29.008H63.7142V28.432H66.9462L66.7702 28.744C66.7702 28.44 66.7222 28.1787 66.6262 27.96C66.5302 27.736 66.3862 27.5627 66.1942 27.44C66.0022 27.3173 65.7595 27.256 65.4662 27.256C65.1622 27.256 64.9089 27.3253 64.7062 27.464C64.5089 27.6027 64.3595 27.792 64.2582 28.032C64.1622 28.272 64.1142 28.5493 64.1142 28.864C64.1142 29.168 64.1622 29.4427 64.2582 29.688C64.3595 29.928 64.5142 30.12 64.7222 30.264C64.9302 30.4027 65.1942 30.472 65.5142 30.472C65.8502 30.472 66.1222 30.3973 66.3302 30.248C66.5435 30.0987 66.6715 29.9253 66.7142 29.728H67.4342C67.3755 30.0213 67.2582 30.2747 67.0822 30.488C66.9062 30.7013 66.6849 30.864 66.4182 30.976C66.1515 31.088 65.8502 31.144 65.5142 31.144ZM70.5406 31.144C70.2366 31.144 69.9566 31.088 69.7006 30.976C69.4446 30.864 69.2206 30.7067 69.0286 30.504C68.842 30.3013 68.6953 30.0667 68.5886 29.8C68.4873 29.5333 68.4366 29.2453 68.4366 28.936V28.792C68.4366 28.488 68.4873 28.2027 68.5886 27.936C68.69 27.6693 68.8313 27.4347 69.0126 27.232C69.1993 27.0293 69.418 26.872 69.6686 26.76C69.9246 26.6427 70.2073 26.584 70.5166 26.584C70.842 26.584 71.138 26.6533 71.4046 26.792C71.6713 26.9253 71.89 27.136 72.0606 27.424C72.2313 27.712 72.3273 28.0853 72.3486 28.544L72.0286 28.032V25.16H72.7966V31H72.1886V29.104H72.4126C72.3913 29.5893 72.29 29.984 72.1086 30.288C71.9273 30.5867 71.698 30.8053 71.4206 30.944C71.1486 31.0773 70.8553 31.144 70.5406 31.144ZM70.6446 30.472C70.906 30.472 71.1433 30.4133 71.3566 30.296C71.57 30.1787 71.7406 30.0107 71.8686 29.792C71.9966 29.568 72.0606 29.3067 72.0606 29.008V28.64C72.0606 28.3467 71.994 28.0987 71.8606 27.896C71.7326 27.688 71.5593 27.5307 71.3406 27.424C71.1273 27.312 70.8926 27.256 70.6366 27.256C70.354 27.256 70.1033 27.3227 69.8846 27.456C69.6713 27.5893 69.5033 27.776 69.3806 28.016C69.2633 28.256 69.2046 28.5387 69.2046 28.864C69.2046 29.1893 69.266 29.4747 69.3886 29.72C69.5113 29.96 69.682 30.1467 69.9006 30.28C70.1193 30.408 70.3673 30.472 70.6446 30.472Z" fill="#565454"/>
<path d="M25.8642 18.037V16.035L29.5822 10.25L30.9732 11.199L27.6972 16.321L27.8532 16.581H33.6772V18.037H25.8642ZM30.8302 20V13.201H32.5332V20H30.8302ZM37.7866 20.247C37.0412 20.247 36.3999 20.0997 35.8626 19.805C35.3339 19.5103 34.9266 19.1203 34.6406 18.635C34.3632 18.141 34.2246 17.6037 34.2246 17.023H36.0056C36.0056 17.3523 36.0792 17.6427 36.2266 17.894C36.3826 18.1453 36.5949 18.3447 36.8636 18.492C37.1322 18.6307 37.4442 18.7 37.7996 18.7C38.1722 18.7 38.4929 18.622 38.7616 18.466C39.0302 18.31 39.2339 18.0977 39.3726 17.829C39.5199 17.5603 39.5936 17.2527 39.5936 16.906C39.5936 16.568 39.5199 16.2647 39.3726 15.996C39.2339 15.7187 39.0302 15.502 38.7616 15.346C38.5016 15.1813 38.1852 15.099 37.8126 15.099C37.5006 15.099 37.2059 15.1597 36.9286 15.281C36.6512 15.4023 36.4346 15.5627 36.2786 15.762H34.5756L35.0566 10.51H40.5556V12.083H35.8626L36.5126 11.576L36.2006 14.852L35.7586 14.722C36.0099 14.436 36.3176 14.1977 36.6816 14.007C37.0456 13.8163 37.5049 13.721 38.0596 13.721C38.7616 13.721 39.3596 13.864 39.8536 14.15C40.3476 14.436 40.7246 14.8173 40.9846 15.294C41.2446 15.762 41.3746 16.2733 41.3746 16.828V16.997C41.3746 17.5603 41.2359 18.089 40.9586 18.583C40.6812 19.077 40.2739 19.48 39.7366 19.792C39.2079 20.0953 38.5579 20.247 37.7866 20.247ZM46.4019 20.247C45.6566 20.247 45.0239 20.1257 44.5039 19.883C43.9839 19.6317 43.5593 19.2937 43.2299 18.869C42.9006 18.4357 42.6579 17.9417 42.5019 17.387C42.3546 16.8237 42.2809 16.2343 42.2809 15.619V14.891C42.2809 14.0157 42.4283 13.227 42.7229 12.525C43.0176 11.823 43.4683 11.2683 44.0749 10.861C44.6816 10.445 45.4573 10.237 46.4019 10.237C47.3379 10.237 48.1093 10.445 48.7159 10.861C49.3226 11.2683 49.7689 11.823 50.0549 12.525C50.3496 13.227 50.4969 14.0157 50.4969 14.891V15.619C50.4969 16.2343 50.4189 16.8237 50.2629 17.387C50.1156 17.9417 49.8773 18.4357 49.5479 18.869C49.2273 19.2937 48.8069 19.6317 48.2869 19.883C47.7669 20.1257 47.1386 20.247 46.4019 20.247ZM46.4019 18.557C47.1733 18.557 47.7409 18.2927 48.1049 17.764C48.4689 17.2267 48.6509 16.3947 48.6509 15.268C48.6509 14.072 48.4646 13.2183 48.0919 12.707C47.7193 12.187 47.1559 11.927 46.4019 11.927C45.6393 11.927 45.0673 12.187 44.6859 12.707C44.3133 13.2183 44.1269 14.0633 44.1269 15.242C44.1269 16.3773 44.3133 17.2137 44.6859 17.751C45.0586 18.2883 45.6306 18.557 46.4019 18.557ZM53.9791 18.739V12.317H55.5651V18.739H53.9791ZM51.6261 16.256V14.8H57.9181V16.256H51.6261Z" fill="#863A0A"/>
</svg>
