<svg width="12" height="12" viewBox="0 0 12 12" fill="none" xmlns="http://www.w3.org/2000/svg">
<path d="M11.0284 3.92909C10.4159 1.23409 8.06506 0.020752 6.00006 0.020752C6.00006 0.020752 6.00006 0.020752 5.99422 0.020752C3.93506 0.020752 1.57839 1.22825 0.965889 3.92325C0.283389 6.93325 2.12672 9.48242 3.79506 11.0866C4.41339 11.6816 5.20672 11.9791 6.00006 11.9791C6.79339 11.9791 7.58672 11.6816 8.19922 11.0866C9.86756 9.48242 11.7109 6.93909 11.0284 3.92909ZM6.00006 6.85159C4.98506 6.85159 4.16256 6.02909 4.16256 5.01409C4.16256 3.99909 4.98506 3.17659 6.00006 3.17659C7.01506 3.17659 7.83755 3.99909 7.83755 5.01409C7.83755 6.02909 7.01506 6.85159 6.00006 6.85159Z" fill="#282727"/>
</svg>
