<svg width="41" height="23" viewBox="0 0 41 23" fill="none" xmlns="http://www.w3.org/2000/svg">
<rect width="41" height="23" rx="3" fill="#37B319"/>
<path d="M10.12 12.76V11.53H11.54C11.8267 11.53 12.0667 11.4733 12.26 11.36C12.46 11.2467 12.61 11.09 12.71 10.89C12.8167 10.69 12.87 10.46 12.87 10.2C12.87 9.94 12.8167 9.71 12.71 9.51C12.61 9.31 12.46 9.15667 12.26 9.05C12.0667 8.93667 11.8267 8.88 11.54 8.88H10.12V7.65H11.42C12.0333 7.65 12.5533 7.75 12.98 7.95C13.4133 8.15 13.7433 8.43667 13.97 8.81C14.1967 9.17667 14.31 9.61333 14.31 10.12V10.28C14.31 10.7867 14.1967 11.2267 13.97 11.6C13.7433 11.9667 13.4133 12.2533 12.98 12.46C12.5533 12.66 12.0333 12.76 11.42 12.76H10.12ZM8.9 15V7.65H10.32V15H8.9ZM14.1347 15L16.6247 7.7H18.9447L21.5047 15H20.0447L17.8747 8.67L18.3847 8.89H17.1347L17.6547 8.67L15.5547 15H14.1347ZM15.8747 13.06L16.3247 11.86H19.2847L19.7247 13.06H15.8747ZM22.5091 15V7.7H23.9291V15H22.5091ZM26.8708 15.04V13.72H28.3808C28.7608 13.72 29.0974 13.6633 29.3908 13.55C29.6908 13.43 29.9441 13.2633 30.1508 13.05C30.3574 12.8367 30.5141 12.5867 30.6208 12.3C30.7341 12.0067 30.7908 11.6833 30.7908 11.33C30.7908 10.9633 30.7341 10.6367 30.6208 10.35C30.5141 10.0567 30.3574 9.80667 30.1508 9.6C29.9441 9.39333 29.6908 9.23667 29.3908 9.13C29.0974 9.02333 28.7608 8.97 28.3808 8.97H26.8708V7.65H28.2908C28.9508 7.65 29.5274 7.74667 30.0208 7.94C30.5141 8.13333 30.9241 8.4 31.2508 8.74C31.5774 9.07333 31.8208 9.45667 31.9808 9.89C32.1474 10.3167 32.2308 10.76 32.2308 11.22V11.44C32.2308 11.88 32.1474 12.3133 31.9808 12.74C31.8208 13.1667 31.5774 13.5533 31.2508 13.9C30.9241 14.2467 30.5141 14.5233 30.0208 14.73C29.5274 14.9367 28.9508 15.04 28.2908 15.04H26.8708ZM25.6508 15.04V7.65H27.0708V15.04H25.6508Z" fill="white"/>
</svg>
