<svg width="63" height="20" viewBox="0 0 63 20" fill="none" xmlns="http://www.w3.org/2000/svg">
<rect width="62.041" height="20" rx="5" fill="#DCDC9F"/>
<path d="M8.59402 10.8091V9.60609H9.98289C10.2633 9.60609 10.498 9.55066 10.6871 9.43981C10.8827 9.32897 11.0294 9.17573 11.1272 8.98012C11.2316 8.78451 11.2837 8.55955 11.2837 8.30525C11.2837 8.05095 11.2316 7.82599 11.1272 7.63038C11.0294 7.43476 10.8827 7.28479 10.6871 7.18047C10.498 7.06962 10.2633 7.01419 9.98289 7.01419H8.59402V5.81116H9.86552C10.4654 5.81116 10.974 5.90897 11.3913 6.10458C11.8151 6.3002 12.1379 6.58058 12.3596 6.94573C12.5813 7.30435 12.6921 7.73145 12.6921 8.227V8.3835C12.6921 8.87905 12.5813 9.3094 12.3596 9.67455C12.1379 10.0332 11.8151 10.3136 11.3913 10.5157C10.974 10.7113 10.4654 10.8091 9.86552 10.8091H8.59402ZM7.40077 13V5.81116H8.78964V13H7.40077ZM13.8385 13V5.86007H15.198V13H13.8385ZM15.0024 13V11.8263H18.2398V13H15.0024ZM15.0024 9.95819V8.78451H17.9855V9.95819H15.0024ZM15.0024 7.03375V5.86007H18.1616V7.03375H15.0024ZM19.6649 13V5.86007H21.9438L24.9465 11.8459H25.2693L25.0736 12.0219V5.86007H26.3843V13H24.0956L21.0929 7.01419H20.7603L20.9559 6.83814V13H19.6649ZM29.3399 13.0391V11.7481H30.8168C31.1884 11.7481 31.5177 11.6926 31.8046 11.5818C32.098 11.4644 32.3458 11.3014 32.5479 11.0928C32.7501 10.8841 32.9033 10.6396 33.0076 10.3592C33.1185 10.0723 33.1739 9.75606 33.1739 9.41047C33.1739 9.05185 33.1185 8.73234 33.0076 8.45196C32.9033 8.16506 32.7501 7.92054 32.5479 7.71841C32.3458 7.51627 32.098 7.36304 31.8046 7.25871C31.5177 7.15438 31.1884 7.10222 30.8168 7.10222H29.3399V5.81116H30.7287C31.3743 5.81116 31.9383 5.90571 32.4208 6.0948C32.9033 6.2839 33.3043 6.54472 33.6238 6.87726C33.9433 7.20329 34.1813 7.57821 34.3378 8.00205C34.5008 8.41936 34.5823 8.85297 34.5823 9.30288V9.51806C34.5823 9.94841 34.5008 10.3722 34.3378 10.7896C34.1813 11.2069 33.9433 11.5851 33.6238 11.9241C33.3043 12.2632 32.9033 12.5338 32.4208 12.7359C31.9383 12.9381 31.3743 13.0391 30.7287 13.0391H29.3399ZM28.1466 13.0391V5.81116H29.5355V13.0391H28.1466ZM35.8456 13V5.86007H37.2344V13H35.8456ZM39.0162 13V5.86007H41.2951L44.2978 11.8459H44.6206L44.425 12.0219V5.86007H45.7356V13H43.4469L40.4442 7.01419H40.1117L40.3073 6.83814V13H39.0162ZM50.8234 13.1858C50.2105 13.1858 49.6693 13.0848 49.1998 12.8826C48.7368 12.674 48.3456 12.3969 48.0261 12.0513C47.7131 11.6992 47.4751 11.3047 47.3121 10.8678C47.1556 10.4244 47.0774 9.96471 47.0774 9.48872V9.27354C47.0774 8.82363 47.1556 8.3835 47.3121 7.95314C47.4686 7.52279 47.6968 7.13482 47.9968 6.78924C48.3032 6.44365 48.6782 6.16979 49.1215 5.96765C49.5715 5.759 50.0866 5.65467 50.6669 5.65467C51.2929 5.65467 51.8471 5.77204 52.3296 6.00678C52.8121 6.23499 53.2001 6.55776 53.4935 6.97507C53.787 7.38586 53.9597 7.86512 54.0119 8.41284H52.6133C52.5676 8.10637 52.4535 7.84555 52.2709 7.63038C52.0884 7.40868 51.8569 7.23915 51.5765 7.12178C51.3026 7.00441 50.9994 6.94573 50.6669 6.94573C50.3344 6.94573 50.0312 7.00441 49.7573 7.12178C49.49 7.23915 49.2617 7.40542 49.0726 7.6206C48.8835 7.83577 48.7368 8.09333 48.6325 8.39328C48.5347 8.69322 48.4858 9.02576 48.4858 9.39091C48.4858 9.78866 48.5412 10.144 48.6521 10.457C48.7629 10.77 48.9194 11.0373 49.1215 11.259C49.3237 11.4742 49.5682 11.6405 49.8551 11.7578C50.142 11.8687 50.4648 11.9241 50.8234 11.9241C51.2994 11.9241 51.7167 11.8263 52.0753 11.6307C52.434 11.4286 52.6948 11.1677 52.8578 10.8482L52.6133 11.973V10.1342H53.8945V11.7187C53.5881 12.1817 53.1708 12.5436 52.6426 12.8044C52.1145 13.0587 51.508 13.1858 50.8234 13.1858ZM50.5984 10.4081V9.37135H54.4912V10.4081H50.5984Z" fill="#7C7810"/>
</svg>
