<svg width="18" height="18" viewBox="0 0 18 18" fill="none" xmlns="http://www.w3.org/2000/svg">
<path d="M8.97493 0.666626C4.37493 0.666626 0.641602 4.39996 0.641602 8.99996C0.641602 13.6 4.37493 17.3333 8.97493 17.3333C13.5749 17.3333 17.3083 13.6 17.3083 8.99996C17.3083 4.39996 13.5833 0.666626 8.97493 0.666626ZM11.4749 10.8583L9.05827 12.25C8.75827 12.425 8.42493 12.5083 8.09993 12.5083C7.7666 12.5083 7.4416 12.425 7.1416 12.25C6.5416 11.9 6.18327 11.2833 6.18327 10.5833V7.79163C6.18327 7.09996 6.5416 6.47496 7.1416 6.12496C7.7416 5.77496 8.45827 5.77496 9.0666 6.12496L11.4833 7.51663C12.0833 7.86663 12.4416 8.48329 12.4416 9.18329C12.4416 9.88329 12.0833 10.5083 11.4749 10.8583Z" fill="#282727"/>
</svg>
