<svg width="34" height="34" viewBox="0 0 34 34" fill="none" xmlns="http://www.w3.org/2000/svg">
<circle cx="16.8463" cy="16.8463" r="16.8463" fill="#E9D3C5"/>
<path fill-rule="evenodd" clip-rule="evenodd" d="M11.6223 9.30824C9.87588 9.63749 8.72703 11.3202 9.05629 13.0666L11.0833 23.818C11.4125 25.5644 13.0952 26.7133 14.8416 26.384L21.4822 25.1321C23.2286 24.8028 24.3775 23.1202 24.0482 21.3737L22.0212 10.6223C21.692 8.87588 20.0093 7.72703 18.2629 8.05629L11.6223 9.30824ZM12.9651 14.8613C14.0314 14.8613 14.8958 13.9969 14.8958 12.9306C14.8958 11.8643 14.0314 10.9998 12.9651 10.9998C11.8988 10.9998 11.0344 11.8643 11.0344 12.9306C11.0344 13.9969 11.8988 14.8613 12.9651 14.8613Z" fill="#863A0A"/>
<path d="M15.889 20.8493L15.9158 20.9365C15.9294 20.9855 15.9165 21.0309 15.8769 21.0726C15.8389 21.1138 15.7914 21.1423 15.7345 21.1582C15.5493 21.2096 15.3691 21.2665 15.1937 21.3288C15.02 21.3907 14.8936 21.4327 14.8144 21.4547C14.7369 21.4762 14.681 21.49 14.6469 21.4961C14.6144 21.5017 14.5774 21.5035 14.5359 21.5014C14.4545 21.4967 14.4008 21.4477 14.3748 21.3543C14.3489 21.2609 14.3362 21.1878 14.3369 21.1347C14.3369 20.5704 14.3905 19.981 14.4977 19.3665C14.597 18.8036 14.6353 18.481 14.6124 18.3987C14.601 18.3576 14.573 18.3304 14.5284 18.3172C14.4834 18.3024 14.4355 18.3021 14.3849 18.3162C14.3358 18.3298 14.2523 18.376 14.1344 18.4548C14.0165 18.5336 13.9338 18.5796 13.8864 18.5927C13.8405 18.6055 13.8013 18.6027 13.769 18.5844C13.7362 18.5646 13.7154 18.5388 13.7066 18.5072C13.689 18.4438 13.7175 18.3686 13.7922 18.2814C14.0582 17.9688 14.3247 17.7038 14.5917 17.4864C14.8582 17.2675 15.1014 17.1275 15.3214 17.0664C15.6458 16.9762 15.8485 17.0768 15.9294 17.368C15.969 17.5104 15.9886 17.6669 15.9882 17.8375C15.989 18.006 15.9686 18.2546 15.9269 18.5833C15.8547 19.1762 15.8333 19.8726 15.8629 20.6724C15.8649 20.7349 15.8736 20.7939 15.889 20.8493ZM20.1221 17.8884C20.2812 18.001 20.3887 18.1578 20.4446 18.3588C20.5004 18.5598 20.5085 18.7485 20.4689 18.9249C20.4288 19.0996 20.3545 19.2618 20.246 19.4113C20.1371 19.5592 20.002 19.699 19.8408 19.8307C19.5244 20.0908 19.1517 20.2804 18.7228 20.3995C18.294 20.5187 17.94 20.5855 17.661 20.5999C17.382 20.6143 17.1711 20.6005 17.0281 20.5584C16.9835 20.5452 16.9515 20.5311 16.9319 20.5161C16.912 20.4994 16.8956 20.4682 16.8829 20.4223C16.8697 20.3748 16.8634 20.2845 16.8639 20.1514C16.866 20.0178 16.8796 19.8888 16.9046 19.7642C16.9313 19.6391 16.9683 19.57 17.0158 19.5568C17.0474 19.548 17.1026 19.5626 17.1813 19.6004C17.2596 19.6366 17.3506 19.682 17.4545 19.7367C17.5583 19.7914 17.6693 19.8441 17.7874 19.8948C18.0719 20.017 18.3297 20.0459 18.5607 19.9817C18.7348 19.9334 18.8779 19.8501 18.99 19.7321C19.1037 19.6135 19.1772 19.4823 19.2105 19.3384C19.2454 19.194 19.2433 19.0514 19.2042 18.9105C19.151 18.719 19.013 18.5937 18.7903 18.5345C18.5692 18.4749 18.2916 18.4915 17.9577 18.5843C17.8501 18.6142 17.7128 18.66 17.5458 18.7217C17.3804 18.783 17.293 18.815 17.2835 18.8176C17.2297 18.8326 17.1685 18.818 17.1 18.774C17.0311 18.7283 16.9914 18.6865 16.9808 18.6485C16.9703 18.6105 16.9665 18.5511 16.9696 18.4701C16.9727 18.3891 16.9804 18.2787 16.9927 18.1389C17.005 17.9991 17.0174 17.8627 17.0298 17.7297C17.0435 17.5946 17.0606 17.4262 17.0813 17.2244C17.1015 17.021 17.1178 16.8528 17.1303 16.7198C17.1351 16.6758 17.1694 16.6152 17.2332 16.5378C17.2969 16.4604 17.3462 16.4169 17.381 16.4072C17.4174 16.3971 17.5052 16.3787 17.6444 16.3519C18.0807 16.2717 18.4302 16.195 18.6929 16.122C18.9572 16.0486 19.1412 15.9898 19.2448 15.9457C19.3481 15.9 19.4819 15.8295 19.6464 15.7344C19.7018 15.719 19.7553 15.7212 19.8068 15.741C19.8579 15.7592 19.8896 15.7904 19.9019 15.8347C19.9718 16.0864 20.0058 16.2977 20.0039 16.4687C20.0031 16.6377 19.9785 16.7639 19.93 16.8472C19.8832 16.9302 19.798 16.9888 19.6746 17.0231C19.5511 17.0574 19.2885 17.0877 18.8867 17.1141C18.4844 17.1389 18.093 17.1505 17.7123 17.1488L17.509 18.4327C17.8679 18.166 18.2412 17.9787 18.629 17.871C19.3301 17.6762 19.8278 17.682 20.1221 17.8884Z" fill="white"/>
</svg>
