<svg width="17" height="17" viewBox="0 0 17 17" fill="none" xmlns="http://www.w3.org/2000/svg">
<g clip-path="url(#clip0_482_2170)">
<path d="M0.758929 0C0.303571 0 0 0.303571 0 0.910714V17H1.51786V14.5714H15.4821V17H17C17.0276 17 17 0.910714 17 0.910714C17 0.303571 16.6964 0 16.2411 0C15.7857 0 15.4821 0.303571 15.4821 0.910714V6.07143H1.51786V0.910714C1.51786 0.303571 1.21429 0 0.758929 0ZM4.25 1.21429C3.24405 1.21429 2.42857 2.02977 2.42857 3.03571C2.42857 4.04166 3.24405 4.85714 4.25 4.85714C5.25595 4.85714 6.07143 4.04166 6.07143 3.03571C6.07143 2.02977 5.25595 1.21429 4.25 1.21429ZM6.67857 2.42857V4.85714H14.5714C14.5714 3.64286 13.3132 2.42857 12.1429 2.42857H6.67857ZM1.51786 7.28571H15.4821V13.3571H1.51786C1.54645 13.3571 1.51786 7.28571 1.51786 7.28571ZM4.25 8.5C3.24405 8.5 2.42857 9.31548 2.42857 10.3214C2.42857 11.3274 3.24405 12.1429 4.25 12.1429C5.25595 12.1429 6.07143 11.3274 6.07143 10.3214C6.07143 9.31548 5.25595 8.5 4.25 8.5ZM6.67857 9.71429V12.1429L14.5714 12.1585C14.5714 10.9286 13.3132 9.71429 12.1429 9.71429H6.67857Z" fill="#863A0A"/>
</g>
<defs>
<clipPath id="clip0_482_2170">
<rect width="17" height="17" fill="white"/>
</clipPath>
</defs>
</svg>
