<svg width="20" height="20" viewBox="0 0 20 20" fill="none" xmlns="http://www.w3.org/2000/svg">
<path d="M14.1667 2.5H5.83341C3.33341 2.5 1.66675 3.75 1.66675 6.66667V12.5C1.66675 15.4167 3.33341 16.6667 5.83341 16.6667H8.80841C9.30008 16.6667 9.70008 16.2333 9.63341 15.7417C9.55008 15.15 9.56675 14.5333 9.69175 13.9C10.1334 11.7333 11.9167 10.0083 14.1001 9.65C15.1917 9.475 16.2334 9.625 17.1501 10.025C17.7084 10.2667 18.3334 9.88333 18.3334 9.275V6.66667C18.3334 3.75 16.6667 2.5 14.1667 2.5ZM14.5584 7.15833L11.9501 9.24167C11.4001 9.68333 10.7001 9.9 10.0001 9.9C9.30008 9.9 8.59175 9.68333 8.05008 9.24167L5.44175 7.15833C5.17508 6.94167 5.13341 6.55 5.34175 6.275C5.55841 6.00833 5.95008 5.95833 6.21675 6.175L8.82508 8.25833C9.45841 8.76667 10.5334 8.76667 11.1667 8.25833L13.7751 6.175C14.0417 5.95833 14.4417 6 14.6501 6.275C14.8667 6.55 14.8251 6.94167 14.5584 7.15833Z" fill="#282727"/>
<path d="M14.9999 10.8333C12.6999 10.8333 10.8333 12.6916 10.8333 14.9999C10.8333 17.2999 12.6999 19.1666 14.9999 19.1666C17.3083 19.1666 19.1666 17.2999 19.1666 14.9999C19.1666 12.6916 17.3083 10.8333 14.9999 10.8333ZM16.7083 14.6249L16.3999 14.9249L14.5833 16.7499C14.4999 16.8249 14.3416 16.9083 14.2249 16.9249L13.4083 17.0416C13.1166 17.0833 12.9083 16.8749 12.9499 16.5833L13.0666 15.7666C13.0833 15.6499 13.1583 15.4916 13.2416 15.4083L15.0583 13.5999L15.3583 13.2916C15.5583 13.0916 15.7833 12.9583 16.0166 12.9583C16.2166 12.9583 16.4416 13.0499 16.6916 13.2916C17.2499 13.8333 17.0749 14.2583 16.7083 14.6249Z" fill="#282727"/>
</svg>
