<svg width="22" height="20" viewBox="0 0 22 20" fill="none" xmlns="http://www.w3.org/2000/svg">
<path d="M6.53857 12.0768C6.53857 12.0768 7.23088 9.30762 10.6924 9.30762C14.154 9.30762 14.8463 12.0768 14.8463 12.0768" stroke="white" stroke-width="1.38462" stroke-linecap="round" stroke-linejoin="round"/>
<path d="M3.76929 9.30765C3.76929 9.30765 4.92313 5.15381 10.6924 5.15381C16.4616 5.15381 17.6154 9.30765 17.6154 9.30765" stroke="white" stroke-width="1.38462" stroke-linecap="round" stroke-linejoin="round"/>
<path d="M1 6.53846C1 6.53846 2.61539 1 10.6923 1C18.7692 1 20.3846 6.53846 20.3846 6.53846" stroke="white" stroke-width="1.38462" stroke-linecap="round" stroke-linejoin="round"/>
<path d="M10.6923 19C12.2217 19 13.4616 17.7602 13.4616 16.2308C13.4616 14.7014 12.2217 13.4615 10.6923 13.4615C9.16292 13.4615 7.9231 14.7014 7.9231 16.2308C7.9231 17.7602 9.16292 19 10.6923 19Z" stroke="white" stroke-width="1.38462" stroke-linejoin="round"/>
</svg>
