<svg width="28" height="28" viewBox="0 0 28 28" fill="none" xmlns="http://www.w3.org/2000/svg">
<path fill-rule="evenodd" clip-rule="evenodd" d="M21.6117 14.0005C21.6117 18.5109 18.0468 22.1672 13.6492 22.1672C13.6492 18.3009 14.7867 13.4172 20.4742 12.8339H21.5309C21.5848 13.2203 21.6118 13.6102 21.6117 14.0005Z" stroke="white" stroke-width="1.75" stroke-linecap="round" stroke-linejoin="round"/>
<path d="M6.91351 11.9633C6.43278 11.9141 6.0031 12.2638 5.95379 12.7445C5.90449 13.2253 6.25423 13.655 6.73496 13.7042L6.91351 11.9633ZM13.6492 22.1671V23.0421C13.8812 23.0422 14.1038 22.9499 14.2679 22.7859C14.432 22.6217 14.5242 22.3992 14.5242 22.1671H13.6492ZM20.6645 12.9557C20.7319 13.4342 21.1744 13.7675 21.6529 13.7002C22.1314 13.6329 22.4647 13.1904 22.3974 12.7118L20.6645 12.9557ZM6.82423 13.7087C7.30748 13.7087 7.69923 13.317 7.69923 12.8337C7.69923 12.3505 7.30748 11.9587 6.82423 11.9587V13.7087ZM5.76749 11.9587C5.28425 11.9587 4.89249 12.3505 4.89249 12.8337C4.89249 13.317 5.28425 13.7087 5.76749 13.7087V11.9587ZM6.82423 11.9587C6.34099 11.9587 5.94923 12.3505 5.94923 12.8337C5.94923 13.317 6.34099 13.7087 6.82423 13.7087V11.9587ZM20.4742 13.7087C20.9575 13.7087 21.3492 13.317 21.3492 12.8337C21.3492 12.3505 20.9575 11.9587 20.4742 11.9587V13.7087ZM6.73496 13.7042C9.29047 13.9663 10.7476 15.164 11.6061 16.6969C12.4951 18.2842 12.7742 20.2968 12.7742 22.1671H14.5242C14.5242 20.171 14.2346 17.8086 13.1329 15.8418C12.0008 13.8203 10.0455 12.2846 6.91351 11.9633L6.73496 13.7042ZM13.6493 21.2921C9.88645 21.2917 6.75259 18.2555 6.57075 14.3492L4.82264 14.4306C5.04613 19.2315 8.91283 23.0416 13.6492 23.0421L13.6493 21.2921ZM6.57075 14.3492C6.38886 10.4417 9.22847 7.11014 12.9762 6.74182L12.8051 5.00021C8.09242 5.46336 4.59922 9.63096 4.82264 14.4306L6.57075 14.3492ZM12.9762 6.74182C16.7209 6.37381 20.1201 9.08733 20.6645 12.9557L22.3974 12.7118C21.7276 7.95253 17.5209 4.53677 12.8051 5.00021L12.9762 6.74182ZM6.82423 11.9587H5.76749V13.7087H6.82423V11.9587ZM6.82423 13.7087H20.4742V11.9587H6.82423V13.7087Z" fill="white"/>
</svg>
