<svg width="22" height="16" viewBox="0 0 22 16" fill="none" xmlns="http://www.w3.org/2000/svg">
<path d="M19.941 0.78125H2.05981C0.920627 0.78125 -0.00268555 1.70456 -0.00268555 2.84375V13.1562C-0.00268555 14.2954 0.920627 15.2188 2.05981 15.2188H19.941C21.0802 15.2188 22.0035 14.2954 22.0035 13.1562V2.84375C22.0035 1.70456 21.0802 0.78125 19.941 0.78125ZM2.05913 2.15625H19.9403C20.3198 2.15625 20.6278 2.46425 20.6278 2.84375V4.21875H1.37163V2.84375C1.37163 2.46425 1.68031 2.15625 2.05913 2.15625ZM19.941 13.8438H2.05981C1.68031 13.8438 1.37231 13.5358 1.37231 13.1562V6.96875H20.6285V13.1562C20.6285 13.5358 20.3205 13.8438 19.941 13.8438Z" fill="white"/>
</svg>
