<svg width="14" height="14" viewBox="0 0 14 14" fill="none" xmlns="http://www.w3.org/2000/svg">
<path d="M10.2784 6.27077C10.0276 6.27077 9.82925 6.0666 9.82925 5.8216C9.82925 5.60577 9.61341 5.1566 9.25175 4.76577C8.89591 4.3866 8.50508 4.16493 8.17841 4.16493C7.92758 4.16493 7.72925 3.96077 7.72925 3.71577C7.72925 3.47077 7.93341 3.2666 8.17841 3.2666C8.76175 3.2666 9.37425 3.5816 9.91091 4.14744C10.4126 4.67827 10.7334 5.33744 10.7334 5.81577C10.7334 6.0666 10.5292 6.27077 10.2784 6.27077Z" fill="#282727"/>
<path d="M12.3843 6.27091C12.1334 6.27091 11.9351 6.06675 11.9351 5.82175C11.9351 3.75091 10.2493 2.07091 8.18427 2.07091C7.93344 2.07091 7.73511 1.86675 7.73511 1.62175C7.73511 1.37675 7.93344 1.16675 8.17844 1.16675C10.7451 1.16675 12.8334 3.25508 12.8334 5.82175C12.8334 6.06675 12.6293 6.27091 12.3843 6.27091Z" fill="#282727"/>
<path d="M6.44591 8.72091L5.36675 9.80008C5.13925 10.0276 4.77758 10.0276 4.54425 9.80591C4.48008 9.74175 4.41591 9.68341 4.35175 9.61925C3.75091 9.01258 3.20841 8.37675 2.72425 7.71175C2.24591 7.04675 1.86091 6.38175 1.58091 5.72258C1.30675 5.05758 1.16675 4.42175 1.16675 3.81508C1.16675 3.41841 1.23675 3.03925 1.37675 2.68925C1.51675 2.33341 1.73841 2.00675 2.04758 1.71508C2.42091 1.34758 2.82925 1.16675 3.26091 1.16675C3.42425 1.16675 3.58758 1.20175 3.73341 1.27175C3.88508 1.34175 4.01925 1.44675 4.12425 1.59841L5.47758 3.50591C5.58258 3.65175 5.65841 3.78591 5.71091 3.91425C5.76341 4.03675 5.79258 4.15925 5.79258 4.27008C5.79258 4.41008 5.75175 4.55008 5.67008 4.68425C5.59425 4.81841 5.48341 4.95841 5.34341 5.09841L4.90008 5.55925C4.83591 5.62341 4.80675 5.69925 4.80675 5.79258C4.80675 5.83925 4.81258 5.88008 4.82425 5.92675C4.84175 5.97341 4.85925 6.00841 4.87091 6.04341C4.97591 6.23591 5.15675 6.48675 5.41341 6.79008C5.67591 7.09341 5.95591 7.40258 6.25925 7.71175C6.31758 7.77008 6.38175 7.82841 6.44008 7.88675C6.67341 8.11425 6.67925 8.48758 6.44591 8.72091Z" fill="#282727"/>
<path d="M12.8159 10.6924C12.8159 10.8558 12.7868 11.0249 12.7284 11.1883C12.7109 11.2349 12.6934 11.2816 12.6701 11.3283C12.5709 11.5383 12.4426 11.7366 12.2734 11.9233C11.9876 12.2383 11.6726 12.4658 11.3168 12.6116C11.3109 12.6116 11.3051 12.6174 11.2993 12.6174C10.9551 12.7574 10.5818 12.8333 10.1793 12.8333C9.58426 12.8333 8.94843 12.6933 8.2776 12.4074C7.60676 12.1216 6.93593 11.7366 6.27093 11.2524C6.04343 11.0833 5.81593 10.9141 5.6001 10.7333L7.5076 8.82577C7.67093 8.94827 7.81676 9.04161 7.93926 9.10577C7.96843 9.11744 8.00343 9.13494 8.04426 9.15244C8.09093 9.16994 8.1376 9.17577 8.1901 9.17577C8.28926 9.17577 8.3651 9.14078 8.42926 9.07661L8.8726 8.63911C9.01843 8.49328 9.15843 8.38244 9.2926 8.31244C9.42676 8.23077 9.56093 8.18994 9.70676 8.18994C9.8176 8.18994 9.93426 8.21327 10.0626 8.26577C10.1909 8.31827 10.3251 8.39411 10.4709 8.49328L12.4018 9.86411C12.5534 9.96911 12.6584 10.0916 12.7226 10.2374C12.7809 10.3833 12.8159 10.5291 12.8159 10.6924Z" fill="#282727"/>
</svg>
