<svg width="10" height="11" viewBox="0 0 10 11" fill="none" xmlns="http://www.w3.org/2000/svg">
<path d="M5 0.5C2.245 0.5 0 2.745 0 5.5C0 8.255 2.245 10.5 5 10.5C7.755 10.5 10 8.255 10 5.5C10 2.745 7.755 0.5 5 0.5ZM4.625 3.5C4.625 3.295 4.795 3.125 5 3.125C5.205 3.125 5.375 3.295 5.375 3.5V6C5.375 6.205 5.205 6.375 5 6.375C4.795 6.375 4.625 6.205 4.625 6V3.5ZM5.46 7.69C5.435 7.755 5.4 7.805 5.355 7.855C5.305 7.9 5.25 7.935 5.19 7.96C5.13 7.985 5.065 8 5 8C4.935 8 4.87 7.985 4.81 7.96C4.75 7.935 4.695 7.9 4.645 7.855C4.6 7.805 4.565 7.755 4.54 7.69C4.515 7.63 4.5 7.565 4.5 7.5C4.5 7.435 4.515 7.37 4.54 7.31C4.565 7.25 4.6 7.195 4.645 7.145C4.695 7.1 4.75 7.065 4.81 7.04C4.93 6.99 5.07 6.99 5.19 7.04C5.25 7.065 5.305 7.1 5.355 7.145C5.4 7.195 5.435 7.25 5.46 7.31C5.485 7.37 5.5 7.435 5.5 7.5C5.5 7.565 5.485 7.63 5.46 7.69Z" fill="#863A0A"/>
</svg>
