<svg width="27" height="27" viewBox="0 0 27 27" fill="none" xmlns="http://www.w3.org/2000/svg">
<path d="M21.0607 9.75239C21.0608 8.7486 20.8611 7.75477 20.473 6.829C20.085 5.90323 19.5166 5.06404 18.8008 4.3603C18.0849 3.65657 17.2362 3.10244 16.3039 2.73022C15.3718 2.358 14.3747 2.17519 13.3711 2.19239C11.4443 2.24969 9.60983 3.0305 8.23287 4.37942C6.85592 5.72835 6.03753 7.54643 5.94064 9.47158C5.89459 10.7562 6.17686 12.0314 6.7608 13.1766C7.34473 14.3217 8.21104 15.2991 9.27783 16.0164C9.5785 16.2119 9.82575 16.479 9.99733 16.7939C10.1689 17.1088 10.2594 17.4614 10.2606 17.82V19.4724H16.7407V17.82C16.7407 17.4624 16.8295 17.1104 16.9992 16.7956C17.1689 16.4808 17.414 16.213 17.7127 16.0164C18.741 15.3264 19.5843 14.3942 20.168 13.302C20.7519 12.2098 21.0584 10.9908 21.0607 9.75239Z" stroke="white" stroke-width="1.62" stroke-linecap="round" stroke-linejoin="round"/>
<path d="M16.74 22.7232C15.8053 23.4242 14.6685 23.8032 13.5 23.8032C12.3316 23.8032 11.1947 23.4242 10.26 22.7232" stroke="white" stroke-width="1.62" stroke-linecap="round" stroke-linejoin="round"/>
<path d="M13.4893 6.09119L11.6965 9.09355C11.6153 9.22516 11.5709 9.37618 11.568 9.53079C11.5651 9.68541 11.6037 9.83797 11.6798 9.97258C11.7559 10.1072 11.8668 10.2189 12.0008 10.296C12.1348 10.3732 12.2871 10.413 12.4417 10.4112H14.6017C14.7547 10.4106 14.9051 10.4507 15.0376 10.5273C15.17 10.6039 15.2798 10.7143 15.3556 10.8472C15.4314 10.9801 15.4705 11.1308 15.469 11.2837C15.4675 11.4367 15.4254 11.5865 15.3469 11.718L13.5325 14.7312" stroke="white" stroke-width="1.62" stroke-linecap="round" stroke-linejoin="round"/>
</svg>
