<svg width="16" height="36" viewBox="0 0 16 36" fill="none" xmlns="http://www.w3.org/2000/svg">
<rect y="2.76929" width="15.9231" height="25.6154" rx="2.07692" fill="#863A0A"/>
<path d="M11.9077 10.6308V12.2508H11.4093C11.0077 12.2508 10.6893 12.3131 10.4539 12.4377C10.2185 12.5623 10.0454 12.7769 9.93467 13.0815C9.8239 13.3723 9.76852 13.7669 9.76852 14.2654V15.8023L9.16621 14.6392C9.26313 14.57 9.4016 14.5146 9.5816 14.4731C9.7616 14.4177 9.94852 14.39 10.1424 14.39C10.5993 14.39 10.9801 14.5354 11.2847 14.8262C11.5893 15.1031 11.7416 15.4908 11.7416 15.9892C11.7416 16.46 11.5962 16.8615 11.3054 17.1938C11.0147 17.5123 10.5993 17.6715 10.0593 17.6715C9.71313 17.6715 9.38775 17.5954 9.08313 17.4431C8.79236 17.2769 8.55698 17 8.37698 16.6123C8.19698 16.2108 8.10698 15.6638 8.10698 14.9715V14.6185C8.10698 13.6354 8.23852 12.8531 8.5016 12.2715C8.77852 11.69 9.17313 11.2746 9.68544 11.0254C10.1977 10.7623 10.8208 10.6308 11.5547 10.6308H11.9077ZM7.31775 10.6308V12.2508H6.81929C6.41775 12.2508 6.09929 12.3131 5.8639 12.4377C5.62852 12.5623 5.45544 12.7769 5.34467 13.0815C5.2339 13.3723 5.17852 13.7669 5.17852 14.2654V15.8023L4.57621 14.6392C4.67313 14.57 4.8116 14.5146 4.9916 14.4731C5.1716 14.4177 5.35852 14.39 5.55236 14.39C6.00929 14.39 6.39006 14.5354 6.69467 14.8262C6.99929 15.1031 7.1516 15.4908 7.1516 15.9892C7.1516 16.46 7.00621 16.8615 6.71544 17.1938C6.42467 17.5123 6.00929 17.6715 5.46929 17.6715C5.12313 17.6715 4.79775 17.5954 4.49313 17.4431C4.20236 17.2769 3.96698 17 3.78698 16.6123C3.60698 16.2108 3.51698 15.6638 3.51698 14.9715V14.6185C3.51698 13.6354 3.64852 12.8531 3.91159 12.2715C4.18852 11.69 4.58313 11.2746 5.09544 11.0254C5.60775 10.7623 6.23083 10.6308 6.96467 10.6308H7.31775Z" fill="white"/>
</svg>
